<svg width="16" height="12" viewBox="0 0 16 12" fill="none" xmlns="http://www.w3.org/2000/svg">
<path d="M14.8567 4.80016H3.89283L6.52234 2.05488C6.73762 1.82914 6.85856 1.52297 6.85856 1.20372C6.85856 0.884473 6.73762 0.578302 6.52234 0.352561C6.30706 0.12682 6.01507 0 5.71062 0C5.40617 0 5.11418 0.12682 4.8989 0.352561L0.325846 5.14782C0.221762 5.26183 0.140173 5.39627 0.0857603 5.54343C-0.0285868 5.83529 -0.0285868 6.16266 0.0857603 6.45452C0.140173 6.60168 0.221762 6.73612 0.325846 6.85013L4.8989 11.6454C5.00519 11.7578 5.13163 11.8469 5.27095 11.9078C5.41027 11.9687 5.5597 12 5.71062 12C5.86155 12 6.01098 11.9687 6.15029 11.9078C6.28961 11.8469 6.41606 11.7578 6.52234 11.6454C6.6295 11.5339 6.71455 11.4014 6.77259 11.2553C6.83063 11.1092 6.86051 10.9525 6.86051 10.7942C6.86051 10.636 6.83063 10.4793 6.77259 10.3332C6.71455 10.1871 6.6295 10.0545 6.52234 9.94308L3.89283 7.19779H14.8567C15.1599 7.19779 15.4507 7.07149 15.6651 6.84667C15.8796 6.62185 16 6.31692 16 5.99898C16 5.68103 15.8796 5.37611 15.6651 5.15129C15.4507 4.92647 15.1599 4.80016 14.8567 4.80016Z" fill="#800A68"/>
</svg>
